<svg xmlns="http://www.w3.org/2000/svg" version="1.1" xmlns:xlink="http://www.w3.org/1999/xlink" width="2000" height="1500" viewBox="0 0 2000 1500"><rect width="2000" height="1500" x="0" y="0" id="background" stroke="transparent" fill="#000000"></rect><svg xml:space="preserve" width="1500" height="1125" data-version="2" data-id="lg_KAMN66utueCDn2czm0" viewBox="0 0 571 372" x="250" y="187.5"><rect width="100%" height="100%" fill="transparent"></rect><path fill="#fff" d="m532.31 173.344 1.372 1.112c-1.392 3.678-1.85 7.186-.225 10.81.566 1.255.976 2.906-1.406 3.159l3.767 8.844c-2.027 2.45-2.58-.076-4.08-.901 0 1.378-.22 2.45.047 3.384.573 2.034.519 3.781-.935 5.5-1.058 1.263-.99 2.69.45 3.993 2.157-1.372.437-4.873 3.822-5.869l-1.187 6.797 4.333 1.945-.178.655h-2.763c.13 1.18-.116 2.49.43 3.111.866.99 2.579 1.659 1.392 3.153-.785.99-.6 2.3-1.972 3.228-1.768 1.194-1.25 5.084.272 7.09.778 1.03 1.474 2.122 2.662 3.849l-3.87-.512c-1.507 3.705 2.771 5.111 2.983 8.462-1.174.92-2.382 2.3-1.297 4.585l1.46-.648c.076.212.226.423.212.628-.123 2.573-.143 5.159-.444 7.718-.266 2.245-.86 4.45-1.31 6.674-.095.47-.484 1.2-.307 1.371 2.361 2.3-.205 4.88.717 7.227l-.887.669-.724-2.45c-1.119 1.604-1.235 2.86-.45 3.548 1.658 1.46.723 2.764.375 4.334-.525 2.381-.6 4.858-.866 7.295l.061-.11c-1.399 2.245-1.474 4.49-.198 6.852.444.825.512 1.856.75 2.79l.021-.054c-1.037 3.132-2.122 6.25-3.064 9.41-.184.628-.04 1.59.341 2.123 2.832 3.923 2.136 8.325 1.863 12.672-.088 1.426-.32 2.845-.47 4.135.361.218.47.341.573.335 5.684-.355 9.533.49 14.828 2.92 1.809.833 3.972.935 5.726 1.85 1.187.62 2.524 1.978 2.743 3.2.389 2.109 1.412 3.835 2.231 5.691 1.14 2.593 2.334 5.166 1.188 8.1a1.706 1.706 0 0 0-.007 1.099c1.255 3.507-.86 6.367-1.563 9.54-.73 3.282-3.146 5.166-4.613 7.78-.669 1.193-1.706 2.033-3.228 2.66-1.822.751-4.572 1.434-4.34 4.593.014.218-1.87 1.044-2.395.744-1.85-1.051-3.412-.32-5.24-.061-2.942.416-6.19.825-8.708-1.754-.58-.594-1.501-.846-2.204-1.345-2.375-1.685-4.948-3.09-5.808-6.332-.382-1.44-1.808-2.58-2.668-3.91-1.651-2.56-2.081-5.685-1.753-8.387.334-2.743-.321-5.296-.219-7.95.082-1.972.089-3.624 2.136-4.647a5.05 5.05 0 0 0 2.102-2.027c.32-.607-.007-1.556-.055-2.586l5.146-4.36c-.662-.444-.976-.833-1.222-.792-2.736.43-5.384 1.364-8.216-.116-.717-.376-2.252.675-3.344 1.208-1.092.532-1.958 1.214-3.344.334-.73-.471-2.381-.97-2.579 1.017-1.044-.137-2.177-.075-3.125-.458a18.698 18.698 0 0 0-9.854-1.194l1.91 3.16c-.846.334-1.842.982-2.074.778-2.266-2.027-4.142-.11-6.094.477-3.473-2.34-4.824-2.21-6.387.458-2.293 0-4.518.075-6.729-.041a3.412 3.412 0 0 1-2.156-.942c-1.7-1.897-3.774-2.068-6.271-1.76l3.657 1.774c-1.774 1.398-2.859.634-3.923.136-1.727-.798-3.31-1.208-5.296-.362-1.624.69-3.596.567-5.439.812.028-1.917-.375-3.52-1.801-5.002l-2.156 1.433 1.241 1.89c-.266.171-.45.39-.655.397-.614.034-1.487-.28-1.808.02-2.852 2.648-6.353 1.14-9.533 1.61-.58.09-1.344.082-1.774-.225-2.211-1.576-4.456-.77-6.763-.375-2.006.341-4.094 1.324-6.087-.143q-1.146-.976-2.327-2.007l1.242-1.119c-3.774-2.463-5.698-2.804-8.94-1.446l4.156 1.044 1.03 2.784 4.948.655c-.218.116-.436.334-.655.341q-5.295.048-10.59.041c-.362 0-.867-.027-1.065-.252-2.286-2.587-4.559-2.232-7.029-.226-.43.348-1.392.048-2.19.048 0-.9.13-2.21-.02-2.245-1.448-.32-2.942-.43-4.744-.635l1.044 4.21c-3.316-.245-6.216-.668-9.103-.6-2.183.048-4.38.621-6.53 1.126a25.931 25.931 0 0 1-10.966.287l.28-1.235-16.76-2.593c.416.6 1.235 1.33 1.371 2.17.068.416-1.05 1.18-1.754 1.528-1.2.594-2.368 1.106-3.828.184-.798-.498-2.095-.334-3.153-.259-2.217.157-4.415.519-6.632.655-.949.062-1.918-.239-2.983-.389l.342-1.774c-3.658-1.528-2.75 2.49-4.231 3.603-4.047-1.979-7.814-4.886-12.761-2.634l1.249.58c-2.866 1.897-5.077-.089-7.991-1.242 2.702-1.89 5.425-.56 7.93-1.235-4.873-2.784-9.93-2.245-14.932-1.378-1.303.225-2.798 1.037-2.886 3.528l6.81-1.556-1.14 4.353c-5.568-2.872-10.126.041-15.347 1.208l-4.012-1.46c-1.4-3.712-1.693-3.856-5.043-2.293l1.528.648c-2.17 1.863-4.742 1.966-7.335 1.918-1.331-.027-1.331-.075-3.44-2.825-.846-1.106-3.132-.887-3.657.587-.519 1.467-1.406 1.91-2.703 2.58-1.87.968-3.364.647-5.097.081-1.522-.498-3.112-.785-4.66-1.215-2.437-.675-4.853-1.173-7.494 1.038l-1.63-4.627 6.673 1.542c.328-2.64-1.48-3.535-2.989-3.562-3.821-.068-7.718-2.081-11.512.382-.86.56-2.136.471-3.22.683l.102.853h7.868q-3.883 3.132-7.67 2.013l1.221-.56c-.13-.17-.191-.341-.26-.341-2.19-.116-4.49-.669-6.55-.198-2.082.478-3.924 1.979-6.265 3.241l-1.726-3.726-2.77-.382.941 2.034c-3.282 1.064-6.435.28-9.574-.116-1.358-.17-2.539-.423-3.89.396-1.72 1.037-3.582 0-4.77-1.051-1.46-1.304-.054-2.327 2.15-3.126l-18.07 2.73.573.976c-.191.123-.375.327-.58.361a25.931 25.931 0 0 1-11.266-.573c-4.675-1.35-9.438-.532-14.665-.464l.696-3.487c-1.733-.655-3.419-1.399-5.036.341l1.146 2.177c-1.644-.368-2.907-.334-3.753-.907-2.047-1.386-3.74-1.276-5.643.259a4.367 4.367 0 0 1-3.01.921 21.837 21.837 0 0 0-8.059.17c-.3.069-.682-.218-1.03-.347l4.449-1.242c-.567-3.596 2.989-2.498 4.913-3.863-4.006-1.317-6.953.403-10.065 1.952l2.743.996c-.935.806-2.839.382-1.938 2.252-2.436-.082-4.893-.027-7.309-.273-2.06-.211-4.053-.962-6.08.348-.607.396-1.63.13-2.456.226-1.645.19-3.344.777-4.914.539-1.617-.246-3.09-1.331-4.66-1.966-.423-.17-.963-.068-1.816-.109l.942-2.21-1.788-1.16c-1.235.531-2.15 2.995-1.829 4.366-5.275.198-6.005-.013-8.25-2.422-.819.75-1.556 1.638-2.484 2.197-.907.546-2.02.744-3.16 1.14q.144-2.006 3.147-2.969c-2.785-.245-4.989-.204-6.763 1.857-.457.532-1.413.791-2.177.88-1.467.164-2.955.102-4.435.15-1.167.034-2.102.355-2.846-1.344-.682-1.563-3.296-.983-5.452.962-2.095-1.065-4.259-2.464-6.736-.628-.184.136-.969-.54-1.63-.928l1.5-2.648c-.457-.245-.79-.587-1.07-.546q-4.177.628-8.326 1.345c-1.071.177-2.204.757-3.18.552-2.655-.552-3.385-.798-4.115-.511-1.16-.574-2.34-1.236-3.582-1.747-.656-.273-1.631-.662-2.075-.39-2.498 1.557-4.947.908-7.63-.122-.504 3.296 2.096 3.944 3.106 4.845.491 1.679.655 2.873 1.194 3.862.382.703 1.194 1.263 1.938 1.665 1.556.84 1.877 2.088 1.74 3.72-.327 3.944-.293 7.902-.443 11.846-.069 1.897-1.263 3.787-2.13 5.596-.573 1.194-1.91 2.142-2.142 3.35-.567 2.88-2.573 4.395-4.763 5.685-3.003 1.767-5.623 4.592-9.643 3.978-.484-.075-1.071.184-1.467 0-2.368-1.126-4.688-.812-7.042.02-.273.096-.683-.198-1.256-.382l.546-2.34c-2.095-.983-4.306-1.945-6.428-3.071-.587-.314-.921-1.106-1.372-1.672-1.14-1.44-2.525-2.743-3.364-4.34-1.112-2.122-1.61-4.552-2.696-6.694-1.938-3.829.123-7.991-1.187-11.86-.177-.533.491-1.338.75-2.027.99-2.607 2.526-4.955 3.14-7.773.641-2.955 3.193-4.142 5.95-4.75.696-.15 1.597.103 2.109-.252 3.262-2.286 7.124-2.627 10.823-3.405 1.453-.307 3.064.102 5.029.212-.164-1.72-.177-3.385-.505-4.982-.853-4.142-.198-7.99 1.727-11.73.423-.826.573-1.918.477-2.853-.143-1.46-.614-2.886-.928-4.333-.669-3.085-2.941-6.067-.518-9.37.293-.402.204-1.262.02-1.815-1.201-3.63-.11-7.67-2.06-11.17-.56-1.004-.547-1.884.634-2.86.996-.819.873-2.388-.096-3.842l-1.167 1.631c-.177-.143-.511-.293-.505-.423.15-2.334-.962-4.572.39-7.09.709-1.317-.199-3.815-.97-5.507-.614-1.344-.614-2.47-.552-3.835.102-2.313-.164-4.634-.287-7.213l1.283.396c1.256-1.713.164-2.976-1.024-4.381 1.147-1.563.97-3.72 2.935-5.077.73-.505.402-2.539.586-4.156l-2.893 1.979c-1.249-1.727-.3-3.023.69-4.02 2.19-2.204 1.385-4.783 1.241-7.315-1.876-.682-2.074-2.627-3.241-4.115l3.65-4.224c-.695-2.15-2.401-.587-3.514-1.071q.874-1.556 3.924-2.566l-1.808-8.08c3.385 1.672 2.224 5.275 4.21 7.377 1.44-1.672 1.61-3.255.505-4.34-1.638-1.617-1.235-3.303-.955-5.125.164-1.023.246-2.067-.3-3.391-.3.252-.574.573-.915.744-.56.28-1.2.682-1.74.6-.314-.048-.703-.962-.676-1.467.041-.703.39-1.413.697-2.081.818-1.795 1.678-3.57 2.654-5.644-2.204-.6-1.979-2.286-1.29-3.521 1.331-2.395 1.113-4.92.649-7.247-1.058-5.282-.246-10.311 1.085-15.368.464-1.767.075-5.473-.478-7.547a2.593 2.593 0 0 1 .26-1.747 10.918 10.918 0 0 0 1.35-5.65c0-1.44.758-2.866.908-4.327.123-1.208.621-2.327-.6-3.685-1.543-1.72.293-3.036 1.508-3.862-.751-4.668-1.427-9.137-2.211-13.593-.267-1.515.286-2.641 1.187-3.713-.287 1.515.15 2.764 1.276 4.06q.348-2.333-1.365-3.971c.287-3.398.737-6.804.771-10.202.014-1.167-.866-2.457-1.624-3.487-.628-.86-1.658-1.42-2.518-2.115-.791-3.187.587-5.712 2.662-8.25-.362-.512-.751-1.092-1.174-1.645-.833-1.085-1.27-1.972.225-3.044.628-.45.792-1.672.969-2.58.177-.948-.034-1.978.184-2.913.86-3.705.587-4.395-2.961-6.108.088-.73.307-1.555.266-2.36-.048-1.052-.048-2.225-.526-3.106-.791-1.474-1.419-2.756-1.399-4.599.007-1.146.171-2.109.41-3.187.464-2.088.573-4.258.99-6.367.47-2.388 1.119-4.735 1.705-7.199l1.74 1.481-.532-4.013c-4.156.744-8.045-.92-12.215-.293-3.173.485-6.496.116-9.055-2.73-1.338-1.494-3.358-2.368-5.057-3.534-2.15-1.481-3.18-3.672-4.053-6.046-.587-1.597-1.542-3.071-2.402-4.559-1.392-2.395-.69-5.022-.908-7.547-.082-.962 0-1.986-.3-2.873-1.897-5.528.239-9.137 5.97-11.13 2.485-.86 4.682-2.696 6.832-4.327 3.923-3.07 7.984-3.493 12.474-1.371 3.098 1.46 6.319 2.661 9.554 4.012.805 3.815 1.637 4.368 4.374 2.682 3.773 3.003 5.91 6.831 5.91 11.765 0 1.733.136 3.466.081 5.193-.13 3.93-.17 3.924-2.914 7.063-.232.266-.348.62-.743 1.344 1.419-.198 2.531-.416 3.65-.498.676-.048 1.597-.15 2.02.218 2.928 2.532 6.701 1.986 10.059 2.791 3.44.826 7.042.976 10.584 1.351.703.075 1.447-.163 2.156-.307 1.085-.211 2.157-.587 3.249-.689 5.268-.478 10.536-.88 15.804-1.31.491-.041 1.099-.355 1.453-.164 3.187 1.72 6.217-.116 9.322-.252 3.801-.164 7.616.02 11.43 0 6.415-.041 12.843.075 19.244-.273 5.268-.287 10.502-1.27 15.763-1.7 3.788-.307 7.657.15 11.396-.368 6.278-.867 12.55-.573 18.828-.58 7.029-.007 14.064.15 21.093.307a9.621 9.621 0 0 1 3.241.648c2.402.949 4.743 1.235 7.131.014a3.412 3.412 0 0 1 1.413-.41q6.858.069 13.723.226c5.514.136 10.932 1.958 16.528.819 1.153-.232 2.415.109 3.937.204l-.177 3.167-4.661 1.904h.034l-2.02.661c-2.197-2.586-5.561-2.067-8.564-2.6-1.563-.28-1.59-.13-2.852-1.76l-2.969 1.29 3.078 1.433c-.253 6.476.764 12.842-1.154 19.557 1.502.212 2.62.492 3.747.498q2.566.028 5.118-.293c2.21-.287 3.896 1.385 5.828 1.535 1.787.137 3.637-.99 5.5-1.248 1.644-.232 3.343-.048 5.37-.048.526-3.624 1.037-7.015 1.508-10.407.103-.73.014-1.487.082-2.224.307-3.18.471-3.474 3.323-5.944-3.33-.566-6.673 3.371-9.908-.54l5.589-.661-3.323-3.364c.777-1.017 2.067-.82 3.2-.662 2.682.368 5.364 1.31 8.018 1.228 2.525-.075 4.995-1.576 7.534-1.706 4.279-.211 8.564-.464 12.89-.355 3.515.089 7.104.184 10.66.116 1.72-.034 3.548-.048 5.138.492 3.89 1.317 7.711 1.187 11.655.436 1.597-.307 3.303-.047 5.596-.047l-3.978 3.814 5.991.778c-2.293 1.918-4.149 2.075-6.257 1.228a10.236 10.236 0 0 0-3.931-.723c3.603 1.57 3.187 4.681 3.494 7.561.382 3.63.982 7.247 1.487 10.864 1.713.184 2.99.614 4.122.375 1.46-.314 2.457 0 3.767.669 1.16.594 3.262.805 4.183.136 2.928-2.122 5.998-1.071 9.035-1.126 1.283-.02 2.56-.068 4.292-.109-.382-2.784-.839-5.056-.962-7.35-.143-2.674 0-5.37.02-8.052v-4.387l3.065-1.529-3.078-1.317c-.457.54-.921 1.631-1.501 1.692-4.525.458-9.063.888-13.6.97-2.635.047-2.641-.253-3.064-3.57 2.094-.948 4.19-.839 7.124.212l-5.357 1.215c3.166 1.18 6.223.641 10.052.266l-2.116-1.706c.396-.15.73-.369 1.078-.39 7.637-.45 15.273-.9 22.909-1.262.812-.04 1.699.335 2.463.696 2.068.956 4.074.587 6.108-.04 1.05-.328 2.122-.826 3.186-.84 10.748-.15 21.496-.293 32.25-.286q8.087 0 16.14.552c3.555.253 7.069 1.078 10.624 1.488q4.402.525 8.83.628c6.415.136 12.857-.123 19.251.266 5.377.327 10.878-1.18 16.139 1.003.423.177 1.078.266 1.433.061 2.743-1.59 5.555-.505 8.339-.3q5.316.396 10.632.812c.245.02.511-.027.737.041 5.486 1.713 10.925.191 16.37-.26 2.553-.21 5.07-.798 7.61-1.22.245-.042.504-.055.722-.158q3.644-1.747 7.33-1.419c-.355-.641-.512-1.426-.929-1.61-2.538-1.113-2.443-3.406-2.51-5.528-.096-2.839-.322-5.739.136-8.51.784-4.722 3.603-8.277 8.168-11.416l-1.658 2.818c1.992.178 3.33-.252 3.303-2.136-.028-1.72 1.064-1.999 2.224-2.45 2.743-1.064 5.514-2.08 8.216-3.254 4.122-1.788 7.868-1.242 11.601 1.2 2.92 1.911 5.514 4.245 9.178 5.194 3.214.825 5.992 6.203 4.34 10.181-.88 2.13-.593 4.75-.791 7.152-.048.607.32 1.378.061 1.822-3.2 5.5-4.32 12.501-11.191 15.38-2.054.86-3.228 3.331-5.998 3.079-1.672-.157-3.399.443-5.084.354-2.061-.109-3.938-.668-6.101.444-1.337.69-3.426-.075-5.261-.191l-.58 4.094 1.917-1.624c.17 3.276 2.314 5.93 1.454 9.253-.191.744.164 1.706.464 2.491.477 1.222 1.788 2.546 1.542 3.508-.348 1.344-.853 2.477-.307 3.869.075.184-.628.621-.88 1.003-.942 1.44-1.972 2.764-.942 4.743.594 1.133.184 2.177-1.399 2.79-1.788.69-2.395 2.785-1.952 4.58.287 1.146.335 2.347.567 3.507.184.935.396 1.884.757 2.757.526 1.27 1.188 2.484 1.276 4.108l-1.515-.778c.09.983-.013 1.795.266 2.45.376.887 1.147 1.61 1.563 2.484 1.037 2.156.683 4.285-1.167 5.855-2.272 1.931-3.084 3.944-2.402 7.097.628 2.9-.402 6.128 1.379 8.905-2.423-.935-2.498-.86-2.307 2.512l2.28-2.573c.02 1.78.204 3.576.02 5.33-.266 2.531-.799 5.036-1.215 7.554l.11-.062c-.315.608-.751 1.188-.929 1.829-.498 1.808.553 1.645 1.72 1.256l-.102-.041c-.062 1.61 1.078 3.289-.6 4.852-.465.43-.178 1.944.108 2.852 1.024 3.262.266 6.926 2.273 9.963.184.28.273.778.157 1.071-1.747 4.381-.3 8.592.655 12.816.47 2.081.976 4.128-.58 5.978.225-2.518-.335-4.825-1.87-7.554-.764 3.316.648 5.377 1.924 7.472ZM68.244 241.242c-2.272.444-2.381 2.334-2.736 4.068l-1.774-2.69v6.088c1.494-.983 2.306-1.897 1.678-3.487q1.392-2 2.73-4.054v-3.043c-1.324 1.276-.553 2.184.102 3.118M127.436 63.41l-3.092-.389c.806-1.767 2.341-1.535 3.829-1.372 3.207.355 5.09-1.262 6.06-4.121.306-.908.511-1.904.504-2.86q-.006-4.074-.266-8.147c-.048-.792-.491-1.556-.778-2.402h-3.453l-.703-2.17c-3.063 1.76-5.834 2.66-8.72.102-.942-.833-2.32-1.194-3.454.464-.436.641-1.944.607-2.982.757-.805.11-1.637.02-2.497.02l-2.539 7.084h-2.272q-.191-1.672-1.91-1.406l1.985 1.324-.703 7.05.491.15 1.781-3.651.724.273-1.433 9.13c1.44-.546 2.525-.805 3.453-1.344 2.347-1.372 4.988-.717 7.022-.055 2.02.662 3.882 1.222 5.97 1.092l-1.712 1.338c2.054.32 3.582.907 4.681-.867l3.46.232.013-.403zm398.692 35.765 2.996-.901-.219-.553-2.839 1.494c-.307-1.842-1.398-2.497-3.152-2.006-2.3.649-4.58 1.358-7.377 2.19l9.601 2.184c0-.839-.027-1.549.041-2.251.007-.076.6-.096.949-.164Zm-478.731 2.668c.587.512 1.16 1.057 1.774 1.542 1.372 1.071 2.02.696 2.477-1.454h-4.36l7.922-2.907c-3.773.075-6.42-2.538-10.624-1.555 2.101 1.269-.833 4.346 2.811 4.374m132.89-63.736c-2.238-.853-4.49-1.195-6.769-.137q2.907 2.375 6.851.02l-.498 2.396c-3.876 2.58-6.77-.758-10.222-1.263.594.894 1.215 1.4 1.235 1.932.062 1.835-.04 3.685-.17 5.52-.226 3.194-.601 6.38-.737 9.581-.041.935.504 1.897.743 2.723l-1.296 1.112c2.17.744 4.333.723 5.432 2.737.123.218 1.296.047 1.87-.205.928-.403 1.712-1.283 2.654-1.474 1.399-.28 1.802.587 1.488 1.945-.041.163.975.784 1.535.84 1.372.122 2.764.04 4.763.04-.812-.669-1.153-.928-1.146-.942 1.412-2.006.648-4.237.832-6.394.396-4.633 1.317-9.226 1.925-13.853.109-.846-.266-1.753-.471-2.92-3.399 1.474-5.753.109-8.018-1.658m209.551-.28c-1.624 3.187-4.47 2.716-7.657 2.129-.13 4.326.97 8.23 1.317 12.194.335 3.87.635 7.739.942 11.54 2.286.634 4.327.628 5.78-.976 1.61-1.781 2.47-2.293 3.514-.669 1.01 1.577 2.341 1.051 2.566.43.82-2.306 3.003-1.542 4.709-2.334-.314-.62-.88-1.283-.737-1.521 1.296-2.157.362-4.347.252-6.531-.184-3.453-.389-6.9-.443-10.352-.014-.737.587-1.488 1.126-2.75-1.215.443-2.436.566-3.208 1.221-1.774 1.522-3.712 1.003-5.636.84-1.972-.164-1.863-2.013-2.518-3.235q4.551 2.49 8.305-.457l-8.305.464Zm119.713 87.176q1.61.758 1.024 2.43l-1.501 4.313c2.245 2.197 4.517 2.402 7.185 1.262 1.468-.628 3.18-.696 4.634-.99 4.668-8.359 3.303-17.483 3.944-26.688-2.518-.28-4.81-.567-7.11-.778-2.457-.219-4.934-.28-7.384-.567-2.06-.238-4.088-.71-6.408-1.125l1.078 5.684 2.491-2.893c.116 1.562.26 2.313.212 3.043-.055.833-.437 1.658-.41 2.477.069 1.952.273 3.903.464 5.848.082.853-.054 2 .437 2.498 1.624 1.651 1.14 3.692 1.413 5.575l-1.46-3.241c-1.802 2.252-1.727 4.306.293 7.588l1.105-4.442ZM65.972 60.277l1.965 2.811 1.174-2.845c-1.358-1.215-2.266-.273-3.228.13.82-4.232 1.788-8.435 2.402-12.7.444-3.098-.928-4.825-4.06-5.985-.648-.239-1.31-.457-1.883-.655l-2.355 3.385c-2.702-1.563-5.077-2.92-7.793-1.406l-3.65-2.382c-2.525 2.907-6.013 4.996-6.074 9.343-.061 4.367-.014 8.734-.014 13.108 1.55 1.495 4.28-.6 4.757 1.966 5.466-3.098 11.464-1.242 17.333-1.795q.682-1.453 1.42-2.968Zm349.184 240.791c-.54 2.553-1.713 4.3-4.845 3.365-.089 5.786-1.85 11.191-1.085 16.534 5.254.587 10.263 1.16 15.272 1.693.853.088 1.727-.028 2.586-.048 2.327-.062 4.668-.32 6.974-.137 3.74.3 4.668-.539 4.45-4.292-.191-3.282-.307-6.572-.273-9.86.034-3.7.123-3.692-3.48-4.607-.123-.034-.178-.355-.335-.703l2.081-.252-.962-2.334-2.3-.239c-.777 2.627-2.033 3.57-4.77 3.282-2.572-.266-5.117-.784-7.615-1.18-.669-2.812-4.074-3.494-7.65-1.474zm-263.993.048h-.014c-3.528 2.368-7.459 2.443-11.464 1.972-1.665-.19-1.91-1.508-1.74-2.982l-4.177.54c3.14.818-.539 1.419.703 2.067l2.47.594c-2.367.832-4.626.92-4.612 3.65.027 4.156-.014 8.319.034 12.475.027 2.572.853 3.344 3.384 3.173 1.481-.102 3.057-.819 4.395-.478 3.849.983 7.588.055 11.362-.163 3.391-.198 6.77-.574 10.42-.888l-1.453-16.52h-3.399l-1.085-2.737 1.55-1.447c-2.239-.546-4.293-.457-6.333-.259-.403.041-.812.457-1.113.798-.075.09.267.54.41.826zm358.417-28.128-.089-.11c-.382 1.16-.84 2.307-1.12 3.488-.19.812-.51 1.965-.122 2.483 1.829 2.45 1.222 4.757-.484 7.398 7.479.211 14.494.825 21.611.675.273-2.3 1.194-3.924.54-6.046-.41-1.31 1.077-3.16.77-4.558-.723-3.303 1.775-6.49.075-9.718 1.488-2.975-.19-5.766-.532-8.625-.239-1.986-1.119-2.375-3.01-1.809a62.098 62.098 0 0 1-6.059 1.536c-3.596.69-7.22 1.242-10.87 1.863v3.562c0 1.515.238 2.71-1.509 4.006-2.525 1.883-2 3.705.806 5.855ZM95.73 299.083c-1.665-.396-3.077-.853-4.524-1.038-1.412-.177-3.002.567-4.354-.88 1.29-.553 2.26-1.078 3.29-1.385 1.269-.382 2.6-.833 3.896-.812 2.689.048 5.37.368 8.052.614 3.064.28 6.135.914 9.192.819 2.819-.089 6.244 1.406 7.875-2.013.983.634 1.747 1.515 2.546 1.556 1.098.054 2.231-.533 3.487-.88 2.948 2.688 6.762 3.24 10.55 2.96 4.53-.333 9.144.22 13.607-1.057.682-.198 1.514-.198 2.204-.02 4.442 1.173 8.7-.321 13.027-.82.607-.067 1.433-.497 1.767-.245 2.027 1.522 4.265.546 6.394.744 1.345.123 2.92.068 3.951.757 2.293 1.536 3.842.232 5.535-.88 1.87 1.577 2.6 1.829 6.073 1.98 5.302.231 10.632.231 15.907.743 4.012.382 7.916 1.91 12.03.525.758-.259 1.713.055 2.58.11 2.327.15 4.654.348 6.988.436 1.474.062 2.954-.109 4.422-.034 2.443.116 4.892.532 7.329.471 2.142-.055 4.176 1.979 6.36.287 5.95.764 11.921 1.446 17.858 2.327 2.914.43 5.746 1.426 8.66 1.794 3.343.417 6.735.423 10.072.6-.014.035-.055.424-.15.438-2.587.389-3.494 2.968-5.439 4.203-.457.294-.566 1.297-.628 1.993-.164 1.829-.211 3.671-.307 5.5l-.45 9c8.189 2.86 15.968 2.956 23.693-.102-.198-5.179-.376-10.195-.587-15.21-.014-.348-.178-.915-.403-.99-2.095-.689-2.272-3.623-4.702-3.95-.532-.07-1.003-.663-1.5-1.01 4.885.6 9.444.231 13.872-1.604.676-.28 1.44-.369 2.17-.478q5.487-.785 10.987-1.536c2.32-.313 4.647-.825 6.974-.839 2.573-.02 5.064.491 7.725-.116a42.309 42.309 0 0 1 13.935-.69c1.706.178 3.493.137 5.179-.17 2.081-.375 4.067-1.044 6.012.43.307.232.948.096 1.412.028 3.358-.499 6.695-1.229 10.073-1.495 4.92-.389 9.874-.341 14.8-.696 1.96-.143 4.157-.014 5.467-1.931 1.863 1.535 3.467 1.972 5.78.785 1.624-.84 3.849-.505 5.814-.67.928-.081 1.863-.102 2.79-.163 1.168-.075 2.348-.314 3.495-.218 4.238.368 8.407 1.856 12.74.696a3.412 3.412 0 0 1 1.836-.034c3.965 1.269 8.093.532 12.12 1.037 4.646.58 8.993-.232 12.644-2.887 1.099.396 2.054 1.092 2.853.949 1.064-.191 2.013-1.037 3.166-1.693 1.112 1.822 2.573 2.437 4.906 2.075 3.61-.56 7.323-.498 10.987-.655 1.965-.082 4.149.464 5.862-.205 3.951-1.556 7.029.273 11.205 2.013l-9.574 1.256v22.772c8.79.395 17.346.58 26.19-1.87l-.668-20.595 2.504-2.116c-1.297-.928-3.944.458-3.337-2.681 1.938-.15 3.344-1.297 2.928-3.317-.348-1.692.163-3.091.443-4.62.423-2.313 1.358-4.729 1.024-6.933a77.794 77.794 0 0 1-.833-16.917c.266-4.21-.969-8.523-1.651-12.774-1.092-6.83-2.232-13.641.436-20.404.246-.634-.013-1.46-.02-2.197a18.152 18.152 0 0 1 2.9-9.99c-.546-1.4-1.365-2.566-1.42-3.767-.36-8.135-.6-16.282-.777-24.423-.062-2.716.443-5.316 1.563-7.896.853-1.979 1.474-4.388 1.194-6.476-.587-4.388.286-8.57.77-12.836.172-1.46.41-3.091-.047-4.422-1.296-3.753.744-7.86-1.412-11.457l-.553-21.066c0-.123-.014-.252.02-.368 1.433-4.552-.505-8.933-.784-13.389-.253-4.013-1.74-7.93-2.205-11.942-.648-5.589-.907-11.232-1.242-16.855-.15-2.58-.307-5.193-.061-7.746.225-2.347-1.037-2.995-2.266-3.111-.696-2.034-1.098-3.644-1.808-5.105-.307-.634-1.194-1.132-1.91-1.33-.246-.069-.806.962-1.208 1.5q-.308.41-.601.84c-4.272-.293-8.516-1.173-12.631-.73-7.943.846-15.818-.464-23.727-.068-1.508.075-3.064-.833-4.838-1.358-3.651.252-7.698.662-11.745.771-2.832.082-5.677-.266-8.516-.375-1.099-.041-2.272-.164-3.282.15-5.46 1.706-10.803.211-16.18-.39-1.61-1.855-3.74-.968-5.65-.982-3.071-.027-6.162.034-9.22.341-2.088.212-4.087.806-6.175-.17-.71-.328-1.7-.13-2.552-.055-2.805.246-5.603.655-8.414.778-2.45.11-4.989-.484-7.363-.061-4.368.778-8.62.3-12.932-.198-1.952-.225-4.006-.444-5.896-.075-7.083 1.365-14.242 1.699-21.393 1.562-6.524-.122-13.034-.996-19.558-1.474-1.46-.109-3.01-.225-4.388.137-3.917 1.024-7.806-.266-11.703.089a2.388 2.388 0 0 1-1.665-.594c-1.767-1.842-3.207-.355-4.667.41-3.058-2.73-5.705-2.73-8.565-.533-2.006-.109-3.432-.348-4.817-.211-1.263.122-2.484.948-3.72.955-4.012.02-8.058.621-12.03-.464-.457-.123-.983-.041-1.467 0-4.163.403-8.332.757-12.488 1.249-9.41 1.105-18.752.164-28.101-.792a66.193 66.193 0 0 0-7.343-.232c-1.604.02-3.207.485-4.797.45-3.078-.075-6.237-.934-9.192-.45-6.626 1.092-13.184-.935-19.762.082-1.058.164-2.198-.26-3.303-.396-1.092-.136-2.184-.334-3.283-.361-2.968-.069-5.93-.062-8.898-.09-.587 0-1.249-.21-1.74 0-4.293 1.891-12.079 2.765-16.078 1.918a22.682 22.682 0 0 0-5.432-.484c-6.046.205-12.098 1.01-18.083-.662-.6-.17-1.597-.143-1.959.232-1.378 1.426-3.077 1.351-4.79 1.351-2.723 0-5.446-.061-8.168.007-2.962.075-5.965.662-8.878.341-6.087-.675-12.093-.068-18.132.416-.232.02-.477-.095-.86-.17l-.757-2.457c-.826.219-1.918.198-2.115.608-.908 1.903-1.57 3.923-2.423 6.175-1.815-.048-2.307 1.304-2.327 3.344-.055 6.408.28 12.83-.86 19.196-.389 2.17-.26 4.429-.628 6.606-.648 3.882-1.883 7.71-2.15 11.614-.306 4.51-1.398 8.933-.743 13.6.641 4.606-.136 9.397.225 14.071.369 4.777-2.764 9.22-1.05 14.044.068.191-.069.491-.171.703-1.263 2.702-.983 5.493-.574 8.318.376 2.56 1.25 5.248.792 7.67-.75 4 .096 7.568 1.235 11.24.471 1.508.983 3.077 1.017 4.626.13 4.92.11 9.84.014 14.76q-.096 5.187-.567 10.34c-.177 1.869-.757 3.705-1.167 5.595.512 1.269 1.044 2.743 1.686 4.162 1.808 4.006 1.208 8.442 2.272 12.652 1.038 4.129.062 8.83-.368 13.245-.73 7.452-3.105 14.754-1.693 22.404.3 1.61-.273 3.432-.641 5.11-.635 2.928-1.024 5.815-.137 8.77.567 1.89 1.631 4.012 1.222 5.732-.737 3.118.355 4.654 2.962 5.39 0 2.628-2.32 1.372-3.453 2.328l2.538 2.293c-.45 6.987-1.16 13.893-.396 20.738 2.86.402 5.419.785 7.984 1.126 1.925.252 3.856.593 5.794.648 2.962.082 5.93-.048 8.899-.11 1.07-.02 2.142-.102 3.405-.163-.164-3.999-.41-7.67-.43-11.341-.02-3.665.177-7.33.286-11.158ZM63.7 210.459c-.656-3.378-.983-6.046 1.849-8.072 1.126-.806.805-3.563-.3-4.347-1.515-1.079-1.816.593-2.498 1.392l-.703-2.273c1.576-1.692 4.32-2.804 2.832-5.97l-1.685 2.258c.054-3.105-.642-5.268.614-7.56.62-1.14.327-2.833.266-4.266-.014-.307-.826-.58-1.174-.798-1.42 1.378 1.003 3.644-1.733 4.579.054-.86.157-1.57.13-2.273-.069-1.842-2.089-4.394-3.89-4.674-4.62-.71-9.254-1.044-13.867-.041-.13.56-.28.914-.28 1.262 0 5.002.396 10.038-.068 15-.402 4.312-.19 8.564-.075 12.849.02.812.369 1.624.54 2.347 6.707 1.952 13.231.99 20.035.601Zm463.65-.791c.115-1.044.163-2.027.334-2.99.832-4.783-.212-9.512-.335-14.268-.027-1.106.075-2.218.082-3.33q.014-5.296 0-10.57c-4.701-1.133-9.096-.656-13.49-.171-1.38.15-2.635.423-3.167 2.088-.15.464-1.372.908-2.04.832-2.205-.245-2.607-.081-2.416 1.89.102 1.072.423 2.164.873 3.14.962 2.095.71 4.162-.327 6.77l-.587-1.953c-1.788 3.501 1.29 4.484 2.593 6.238-.525.232-.75.423-.955.402-1.27-.123-2.607-.307-2.982 1.358-.321 1.426-.772 2.962 1.248 3.72.417.156.771.92.86 1.453.3 1.91.478 3.842.764 6.326 1.945.047 4.197-.02 6.422.184 4.32.396 8.598.566 13.122-1.112Zm-466.673 49.85c-1.959-.308-3.774-.526-5.562-.881-3.849-.778-7.704-1.556-11.519-2.477-1.897-.458-2.47-.226-2.996 1.904-.737 2.975-.655 6.005-.853 9.02-.382 5.72 1.556 11.172 1.099 16.822-.082.99.553 2.034.798 2.86 4.224 0 8.114.477 11.826-.137 3.644-.6 7.677 1.098 11.158-1.679-3.754.976-2.607-2.538-4.197-3.774 2.252-1.35 2.866-3.173 1.91-5.22-.73-1.556-.62-2.675.471-4.006 1.324-1.61.847-3.766-.511-4.647-2.314-1.501-1.857-3.391-1.734-5.398zM506.509 63.292h4.681c4.34.027 8.783-.669 12.843 2.143-.096-.553-.218-.792-.15-.949.812-1.89 3.262.212 4.374-2.463 0-2.116-.403-5.105.082-7.943 1.044-6.115-1.918-10.011-6.25-13.341-1.454.791-3.024 2.327-3.911 2-2.88-1.065-4.934.559-7.513 1.562l-2.382-3.324q-.785.328-1.617.649c-3.405 1.242-4.586 3.139-4.054 6.687q.45 2.921 1.058 5.808c.635 3.104.648 6.4 2.839 9.164Zm-70.035-19.087c-.177 3.897-.56 7.452-.437 10.994.144 4.224 2.594 6.312 6.736 6.503 1.29.061 2.538.635 3.835.792 1.433.17 3.146.655 4.292.095 3.446-1.685 6.674-1.733 10.038.027.546.287 1.304.164 1.768.212l-1.4-9.076c2.253.853 1.052 3.658 3.433 4.06-.32-1.794-.84-3.337-.805-4.858.034-1.468.641-2.928 1.003-4.43-1.924-.347-1.644 2.949-3.391 1.877l-2.675-7.185c-2.02-.144-3.754.286-5.269-1.188-1.18-1.153-2.832-.723-4.08.3-2.232 1.83-4.477 1.713-6.824.294-.403-.246-.887-.341-1.529-.573l-.771 2.163h-3.917ZM225.183 324.372c-.075-1.474-.185-2.661-.178-3.842q.02-3.855.144-7.717c.04-1.352.28-2.696.273-4.04-.035-4.92-2.798-6.558-6.695-5.466.062.211.055.546.191.62.88.465 2.102.915 1.29 2.089-.382.553-1.74.846-2.484.641-1.351-.368-2.538-.948-3.371.724-.416-.328-1.16-.628-1.187-.99-.307-3.733-.649-4.142-3.965-4.251-.614-.02-1.235 0-1.85 0-1.432.846-1.671 3.043-3.698 3.262-.232.027-.628.757-.566.825.989 1.099-.28 1.317-.567 1.98-.375.86.096 2.067.123 3.132.11 4.258-.048 8.543 1.406 13.054h21.154Zm137.954-22.266c.177 0-.075-.041-.314 0q-2.211.43-4.409.887c.67 1.344-2.893 2.04-.56 3.644l-1.52.634c-.704-1.767-1.857-.962-3.044-.627-.997.28-2.28.784-2.84-.71-.661-1.76 1.018-1.563 1.85-2.088.13-.082.103-.396.15-.6-3.808-.485-6.987 1.228-7.022 4.373-.061 5.48.396 10.967.642 16.59 6.967-.062 13.873.518 21.216.109l1.248-16.091c-2.49.109-.238-2.095-1.33-2.846-1.242-.866-2.375-1.904-4.06-3.275ZM65.76 108.48l1.167-5.704c-1.951 2.32-4.374-.41-6.55 1.057-1.775 1.195-4.784.505-7.241.724-2.293.204-4.579.498-6.64.73-.245.443-.355.553-.361.662-.383 7.288.395 14.494 1.48 21.68.069.45.294.914.553 1.303.703 1.058 1.46 2.081 2.17 3.078 1.733.45 3.521.88 5.282 1.385 2.457.703 4.6.532 6.148-2-2.313-3.95-1.583-7.765.73-11.512 1.01-1.637 1.038-4.94-.293-5.418-1.57-.566-.9-1.399-.457-1.59 2.45-1.05 2.027-2.654 1.2-4.524-.21-.478-.033-1.126-.033-2.593zm436.013 129.192c1.33 3.494 2.388 6.45 3.583 9.35a3.276 3.276 0 0 0 3.173 2.142h5.855l-.608-3.507c-2.688-1.045-4.265.757-6.066 1.419-.273-.253-.587-.41-.594-.58-.048-.949-.02-1.897-.02-2.846-2.375-.04-3.2-.846-3.453-3.391-.082-.86.737-2.02-1.877-2.587ZM79.04 50.901l-2.825-5.774-1.747 17.634c2.784-3.33 2.518-7.39 2.934-11.205l1.638-.649Zm415.452-5.726-2.77 5.623c1.548.294 2.238 1.556 1.903 3.276-.375 1.958.662 3.692.703 5.602.027 1.147.928 2.273 1.433 3.412.307-3.118-.048-5.984-.362-8.857-.313-2.86-.58-5.719-.914-9.063ZM263.588 58.352c1.897-4.094-.232-7.445-.273-10.89l3.433-1.98-1.536-2.456-3.596 1.863 1.972 13.457Zm44.05-10.911c-.67 3.391-1.789 6.667-.301 9.956l1.856-12.624-3.644-1.631-1.474 2.572zM45.328 82.598c2.669-5.575 3.057-10.127 1.017-12.938a39.58 39.58 0 0 0-1.017 12.938m479.339-12.4-1.079-.013c-.28.874-.887 1.788-.784 2.614.34 2.634.92 5.234 1.48 7.834.15.703.567 1.35.86 2.02l.744-.198c-.218-4.101-.143-8.237-1.221-12.256M62.56 248.926c-.792-2.654-3.037-4.34-4.695-3.555-1.87.887-1.48 2.443-.887 3.971zm318.169-197.78c-3.549 1.877-3.692 4.19-.833 7.902 1.447-2.518.464-5.029.833-7.902m-187.326 1.938-2.73-1.965-.6.45c1.003 2.355-1.187 5.105 1.426 7.814zm312.751 200.34c-.232 1.971.273 3.05 1.795 2.96 1.788-.108 3.644-.402 5.309-1.036 1.2-.458 2.136-1.61 3.187-2.45a6.415 6.415 0 0 0-3.788.77c-3.842 2.048-3.828 2.082-6.503-.245M62.533 129.854c2.074-4.36 2.074-5.943.15-7.697-1.44 2.798-1.474 3.623-.15 7.697m465.144 2.723.491-.88-2.286-5.48-1.85 5.37 3.652.997Zm-16.664 39.34-4.197 2.478c.621 1.924 2.02 1.29 3.344 1.119 1.228-.157 2.34-.587 2.265-1.904-.034-.642-1.01-1.235-1.412-1.693M216.12 329.163c2.614.464 5.228.928 7.316-1.583-2.928-.908-5.18.13-7.316 1.583M44.777 126.21l-1.945 5.78.696.648 3.357-1.262-2.102-5.159Zm302.432 201.506c2.443 2.013 4.893 2.327 7.589 1.29-2.32-1.01-4.545-2.56-7.589-1.29M63.932 173.766l-5.835-1.241c.955 2.798 1.228 2.914 3.555 3.262 1.488.218 2.02-.417 2.28-2.02M238.36 38.01c.553.464.873.962 1.2.969 2.594.061 5.187.034 7.78.034-2.79-1.255-5.602-2.129-8.98-1.003M62.04 256.207c-2.36-1.999-4.449-3.616-7.424-3.289 2.272 1.222 3.746 4.19 7.424 3.29m353.108 68.471c-2.095-1.74-3.234-1.822-6.155-.457 1.979 2.02 4.012.874 6.155.457m-259.51-.525c2.047 1.372 4.129 2.068 6.565-.089-2.43-1.276-4.483-.668-6.565.089M475.187 40.542c-4.36-.69-5.535-.533-8.223 1.214l3.685.082c-.028-1.788 1.228-.935 2.047-1.01.833-.075 1.658-.19 2.49-.286M318.222 322.878c-.928 1.05-.826 2.286.39 2.6 1.33.341 2.858-.034 4.285-.219.252-.034.43-.682.716-1.18q-3.44.095-5.398-1.201Zm203.635-291.74.935.246c.484-.696 1.494-1.55 1.344-2.054-.286-.949-1.235-1.7-1.91-2.532l-.833.423.464 3.924ZM252.137 322.4c-.58 3.617-3.248.84-4.995 1.795 1.563 1.392 4.49 1.979 5.548 1.105.962-.791.799-1.665-.546-2.907ZM48.905 26.655q-3.207 2.532-.58 4.606c1.651-1.358 1.263-2.907.58-4.606m87.634 18.964c-1.065 2.736 1.788 3.07 2.484 5.247l1.351-2.074c-.9-1.774-3.985-.403-3.835-3.173m294.83.184c-.572 1.883-1.862 3.392.315 4.545q1.324-1.938-.314-4.545m-61.6 272.824 3.036 4.578q.348-4.012-3.036-4.578m-168.383-.342c-3.61.499-3.917 1.003-3.043 4.811zm-161.203-151.5c-.832 1.639-2.034 3.188-.969 5.76.717-2.259 2.143-3.726.969-5.76m20.322 123.74c.095-.068.232-.116.287-.211.04-.068.02-.239-.035-.3-.573-.621-1.064-1.393-1.767-1.816-1.338-.805-2.668-.99-3.392.765zM11.168 16.801l1.897-5.405-3.159.956 1.256 4.449Zm34.775 3.14 1.939 4.237c1.426-3.303 1.105-4.074-1.939-4.238m283.53 303.757c-.334 1.63 0 2.593 1.236 2.49.6-.047 1.174-.914 1.658-1.494.123-.15-.164-.635-.314-1.126zM501.692 47.318c-3.214 1.365-1.576 3.555-1.679 5.24zM559.6 16.617l1.5-4.19-3.322-.949zM372.813 61.744l-5.568 2.115.34.928c1.66-.689 3.856.157 5.228-3.036Zm137.012 228.952 5.248-1.74c-2.17-1.972-2.443-1.897-5.248 1.74M430.421 40.207l6.067-.436c-2.457-1.433-4.272-.642-6.067.436m-289.508-.006c-2.525-1.352-4.401-1.645-6.988-.383zm319.432 24.661c1.665 1.631 3.043 1.515 4.81.267-1.72-1.358-3.111-.867-4.81-.267m62.425-40.698c1.086-1.767 2.355-2.92.465-4.483-1.318 1.255-1.706 2.45-.465 4.483M197.225 59.806l.764.15q1.174-1.924.02-5.104zM563.14 21.23l-.525-4.716-.88.11c-.567 1.685-.26 3.241 1.405 4.599Zm-77.916 305.019c-1.877-1.283-3.14-1.959-4.722-.423 1.371 1.87 2.75.75 4.722.423M373.209 59.99c.177-1.706.498-3.241-.97-4.435.124 1.453-1.412 3.227.97 4.435m152.544 115.851q-.73-2.272-2.996-1.774c.785 1.03 1.187 2.49 2.996 1.774M404.558 319.118l1.12.15.266-5.541-.696-.102zM514.077 64.78q2.402 1.323 3.357 0zm-164.588-.82q-1.87-1.507-3.092.656zM238.858 323.746c-.457 1.146-.41 2.135.819 2.388.498.102 1.255-.457 1.699-.908.232-.232.041-.88.041-1.474zM106.008 64.61q2.095 1.897 4.231 0zM90.013 326.877l.15-1.133c-1.208-1.413-2.409-.99-4.245.628zm-45.12-150.995c2.15.464 2.538-.812 3.33-2.17-2.013-.396-3.092 0-3.33 2.17M7.695 21.257q1.802-2.86.56-4.354zm96.635 20.2q-2.921-1.27-4.607.961zm421.832-3.12c-.368-.586-.716-1.18-1.099-1.753-.327-.498-.689-.976-1.337-1.884q.19 3.098 2.443 3.638ZM203.981 64.672q-2.362-1.876-4.293-.484zm297.267-4.824-.096.785 2.43 1.822c.074-1.085.3-2.225.143-2.28-.771-.266-1.638-.245-2.477-.327m9.376 154.816-.103-.928-2.108.205c.048.334.109.962.136.955.696-.034 1.386-.143 2.075-.232M70.189 47.707l-1.03.641c.348.567.655 1.167 1.078 1.665.055.069.696-.361 1.058-.56zm277.908 2.873 3.077-1.297-3.548-1.078zm-183.15 2.504c-2.306 1.222-.3 2.095 0 3.2zM59.107 322.066h-4.313c1.734 1.378 2.778 1.665 4.313 0m281.388 2.559c1.59-.41 2.866-.962 1.474-3.317zM447.215 64.61c-1.112-1.74-2.272-2.17-3.958-.32zm75.235 226.53v-.396h-5.712v.395zm-469.13-1.597.028-1.044H48.7l-.006.49zm11.894-35.936q-1.856.785-1.282 2.969zm-19.816 1.283q-1.788-1.726-3.276-.737zm473.196-11.45-.99.218.362 3.385.915-.123zM60.24 213.49l-.184 1.296q1.2.013 2.402-.028c.027 0 .102-.607.054-.627-.75-.246-1.515-.437-2.272-.642M328.014 64.085l.102.989 2.75-.498-.102-.676zm171.992-6.743.99.212c.108-.86.252-1.72.3-2.586 0-.103-.512-.232-1.1-.485zm15.251 264.703h-3.439c1.385 1.672 2.375 1.358 3.44 0M415.141 38.57c-.9-.526-1.508-1.659-2.62-.226.635 1.25 1.385 1.577 2.62.226M242.516 64.938l.054-.806-2.709-.19-.054.75 2.702.252ZM56.52 65.51l-.007-.771c-.887 0-1.781-.048-2.655.054-.122.014-.163.737-.314 1.46zm-7.732 225.15-.164.58q2.368 0 4.743-.02c.068 0 .13-.273.26-.566zm468.768-2.176.082 1.126 4.162-.635-.068-.491zM60.404 66.965l-.24-1.065-2.606 1.119.232.362 2.62-.417Zm450.05-1.018-.137 1.045 3.043.395.13-.6zm-121.29 262.138.177 1.044 2.914-.826-.062-.382zm-211.354.116 3.576.846.116-.846zm45.032-279.655c-.832.157-1.624.294-2.409.478-.116.027-.184.266-.273.416q2.232 1.037 2.682-.887Zm182.842 6.572.997.28c.163-.717.34-1.433.443-2.164 0-.04-.614-.17-.948-.252zm-304.35 7.527q1.877-.314 1.945-1.7zM40.457 315.904l-.75.157.6 2.688.614-.122zM220.795 63.92c1.221.109 2.02.184 2.818.211.02 0 .212-.784.062-.92-.84-.786-1.686-.71-2.887.716ZM44.906 38.147l1.017.648 1.14-2.3-.696-.41zM525.097 254.29q2.327.17 3.044-1.474zm-8.584-80.394-2.75.28c1.276 1.925 1.938 1.583 2.75-.28M543.836 5.42l-.034.573 2.846.334.054-.648zM44.19 215.598l.402-2.675q-1.678 1.29-.402 2.675M548.62 40.166l.669.39 1.453-2.553-.512-.314zm-21.817 175.541q.997-1.679-.737-2.689zM135.932 326.925l.798.73 1.297-1.781-.499-.423-1.59 1.467Zm125.561-3.05-1.808 2.115c1.972.368 2.265-.355 1.808-2.116M70.496 54.313c-1.685 1.003-1.412 1.828 0 3.275zM194.12 40.166l.13.976 2.21-.34-.081-.636zm-38.406-1.883c1.236 1.726 1.911 1.187 2.518.252.096-.15.014-.409.014-.9zM53.784 174.087c1.133.758 1.59 1.215 2.123 1.345.177.04.552-.758 1.112-1.563l-3.235.225ZM46.21 66.166l2.531 2.102c-.054-2.034-.832-2.266-2.531-2.102m473.026 35.69c-.335 1.774.252 2.292 1.672 1.951.156-.04.266-.287.518-.573zm-290.17 222.707.996-.484c-.341-.621-.669-1.256-1.051-1.843a4.094 4.094 0 0 0-.798.41c.245.655.56 1.29.853 1.924Zm300.713-5.943.887.19.286-2.647-.614-.089zM140.688 43.06l-.212-.812-1.972.491.15.635 2.04-.314Zm384.055 22.86c-1.236.225-1.816.164-2.109.423-.328.287-.389.874-.566 1.324l.484.307zm-91.394-2.75.095.328 1.59-.273-.116-.546-1.562.491Zm.327 262.513-.532.395q.512.703 1.065 1.379c.02.027.361-.219.552-.341l-1.091-1.433ZM256.99 304.726c-.464.512-.846.86-1.112 1.276-.048.075.532.683.594.648a4.777 4.777 0 0 0 1.153-.955c.055-.061-.307-.484-.635-.969M56.207 212.8l-.082-.621-2.532.444.062.457 2.545-.28ZM432.066 43.394l.089-.887h-2.027l-.055.532 1.993.362Zm84.488 212.459-.062.662 1.802.184.061-.696zM53.129 243.938l-.805-.062v2.778l.437.027zm281.06 77.493-.641 3.119.641.102zm-24.812 2.177c-.266.723-.518 1.12-.505 1.501.007.24.423.464.655.69.205-.369.512-.717.58-1.113.041-.211-.32-.498-.737-1.085ZM95.766 40.214l-.137.369 3.05.143.028-.512zm421.648 172.763.04-.354c-.422-.069-.846-.178-1.275-.192-.403-.013-.813.069-1.215.11l.048.443h2.402ZM74.42 55.937l-.805-.574c-.32.546-.655 1.085-.935 1.652-.02.04.457.396.47.382q.65-.71 1.27-1.46M54.323 256.303l-.136-.546-1.508.225.245.84zM496.58 56.715l1.146.62c.15-.28.492-.682.41-.811-.219-.335-.621-.553-.956-.82zM50.809 238.26l-.867.069.185 1.665q.28 0 .566-.02zM467.633 61.082l-.6.723 1.958 1.208.307-.43zM27.266 6.032c-.082-.197-.116-.49-.26-.559-.17-.082-.436.028-.668.055.082.19.123.484.266.553.17.081.437-.02.662-.041Zm349.198 34.933v-.915l-1.877.15-.006.642zM67.65 98.43l-.717-.56c-.164.3-.396.58-.464.9-.068.322.027.683.11 1.789zm248.625-35.683.546-.348-.389-.546-.757.56zm11.274 262.526.034-.614-1.502-.075-.034.594zm-162.33-9.86.669-.465q-.41-.682-.86-1.33c-.014-.014-.56.3-.546.327q.341.75.744 1.467Zm148.654-10.646c-.314.444-.71.805-.641.955.184.403.566.71.866 1.058.294-.327.84-.682.806-.962-.048-.341-.587-.621-1.038-1.044ZM137.576 63.423l-.054-.28h-1.372l.02.28zm366.176 36.542.73-.102-.641-1.76-.567.197zm-192.676-50.02.43-.054-.177-1.986-.553.075zM55.846 214.22l.197.546 1.856-.641-.211-.6-1.836.695Zm60.835 89.763-.6-.19-.52 1.576.622.197.498-1.576Zm427.68 34.564.615-.239-.88-1.529-.471.246zm-379.08-19.374.635-.177-.47-1.788c-.226.075-.656.191-.649.212.137.593.314 1.173.478 1.753Z"></path><path fill="#fff" d="m533.714 282.11.908-1.202c2.422 2.764 2.43 2.826 1.105 5.29-2.58-.52-.716-3.085-1.938-4.211zm-497.476-1.652c.184 2.498.75 4.306-.846 5.848-1.652-2.224-1.638-2.374.846-5.848m2.183-166.505-.348-3.426c1.229.962 2.423 1.924 1.345 3.385zm495.914 177.69 1.338 3.323c.45 1.105.239 1.877-1.406 2.231-.566-1.883-.341-3.732.075-5.602zm-497.763 5.561q-1.542-1.685 0-3.95zM244.895 41.81l3.35-.157-.026.778-3.27-.628zm286.199 69.06 1.74-1.59c.314 1.453-.69 1.569-1.795 1.575zM368.259 331.91l1.454-1.078.328.45-1.468 1.065-.314-.43ZM322.614 41.898l1.549-.491.205.43-1.413.818-.348-.75Zm206.828 91.012c1.27.723 1.809 1.644.799 2.982l.102.04-.791-3.084zm1.597-22.049 1.406 2.457-.921.341q-.191-1.378-.41-2.77zm4.286 189.475c.15.157.457.39.423.45-.13.26-.362.465-.553.69-.075-.212-.218-.43-.198-.635.014-.17.212-.334.334-.505Zm-37.3-3.732c-.266.982-2.273.484-1.324 2.04-1.153.198-2.928.962-3.344.498-1.351-1.494-2.886-.593-4.442-.525l2.3-4.982c1.61 2.443 4.25 2.662 6.816 2.976Zm-418.196-2.416 2.102 4.08c-1.597.417-3.52-.224-5.118.956-.498.369-1.037-.198-2.402-1.733-.252-.287-.887-.246-1.487-.39zm83.485-.28h3.91l.014.628h-3.985zm240.39-.013h4.374c-1.877 1.446-3.174.607-4.368.86zm105.41-110.733.532 1.999-.819.273-.716-2.034zM61.268 270.89q-.266.716-.58 1.42c-.007.013-.375-.13-.573-.205l.546-1.454zm448.31 2.102.15-1.665.614-.458 1.085 1.413c-.935.28-1.44.437-1.945.6zM151.16 301.12l2.982.246c-1.324 1.494-2.095.027-2.996-.246zm263.993-.048 3.119.3c-1.474 1.352-2.246.096-3.126-.306ZM185.589 156.07q-.5-9.35-4.27-15.91-3.77-6.56-9.59-10.9-5.82-4.35-13.37-6.56-7.54-2.22-15.5-2.87-7.95-.66-15.9.16-7.96.82-14.68 2.63.49 13.61.57 28.53.08 14.93.08 29.69v28.78q0 14.02.5 25.99 2.78.33 6.56.49 3.77.17 7.62.09 3.86-.09 7.38-.33 3.53-.25 5.82-.9.17 0 .25-.09.08-.08.25-.08v-.16q-.33-11.97-.41-19.03-.09-7.05-.09-11.23v-6.4q0-2.21-.16-4.51 7.87 1.32 15.42-.73 7.54-2.05 13.77-6.65 6.23-4.59 10.42-11.15 4.18-6.56 5.16-14.43.17-.98.17-2.05v-2.21zm-28.7-6.89q2.13 1.32 3.36 3.28 1.23 1.97 1.64 4.27.41 2.29-.17 4.59-.57 2.3-1.88 4.1-1.97 1.97-4.68 2.87-2.7.9-5.57 1.23-2.87.33-5.82.41-2.96.08-5.58.25h-.49q-.82-2.46-1.07-5.5-.24-3.03-.33-6.31-.08-3.28 0-6.56.09-3.28-.08-6.23.17-.17.49-.17 5.25-1.31 10.66-.41 5.42.9 9.52 4.18"></path><rect width="73.31" height="116.89" x="-36.66" y="-58.44" fill="none" rx="0" ry="0" transform="translate(149.43 178.3)"></rect><path fill="#fff" d="M233.8 227.74q.17 2.3.08 4.1-.08 1.8.25 4.59 0 .49 1.31.58 1.31.08 2.95-.09 1.64-.16 3.28-.41 1.64-.24 2.3-.24 1.97-.17 3.28-.25 1.31-.08 2.46-.08t2.46.08q1.31.08 3.28.25.66-21.65.25-41.82-.41-20.17-.41-40.35-3.94.33-6.56.17-2.63-.17-4.76-.25-2.13-.08-4.18.08-2.05.17-4.84.99v.65q-.82 5.42-.74 10.83.08 5.41.33 10.9.25 5.5.41 11.07.16 5.58-.16 11.16-.33 4.42-2.3 6.64-1.97 2.21-4.43 2.95-2.46.74-5 .33t-3.85-1.07q-.17-.16-.33-.16-.17 0-.33-.17-1.31-.98-2.05-2.78-.74-1.81-1.15-4.1-.41-2.3-.57-4.68-.17-2.38-.33-4.34-.33-4.43-.41-9.52-.08-5.08 0-10.16.08-5.09.08-9.84 0-4.76-.33-8.53-5.74 0-10.25-.08-4.51-.09-10.25.73.33 5.58.17 12.96-.17 7.38-.33 15.33-.16 7.96-.25 15.75-.08 7.79.17 14.35.24 6.56 1.15 11.23.9 4.68 2.54 6.15 3.44 2.95 7.71 4.1 4.26 1.15 8.77.99 4.51-.17 8.77-1.64 4.27-1.48 7.71-3.94.82-.66 2.05-1.31 1.23-.66 2.05-1.15"></path><rect width="63.15" height="83.09" x="-31.57" y="-41.55" fill="none" rx="0" ry="0" transform="translate(224.9 196.01)"></rect><path fill="#fff" d="M267.909 117.37q-1.47 14.92-1.39 29.85.08 14.92.57 29.84.5 14.93.74 29.85.25 14.93-.9 29.69 1.15-.33 4.59-.17 3.45.17 7.3.25 3.85.08 7.13 0t4.1-1.07q-.32-6.56-.49-15.99-.16-9.43-.16-20.25 0-10.83.08-22.47.08-11.64.25-22.47.16-10.82.32-20.33.17-9.52.17-16.24z"></path><rect width="23.73" height="119.37" x="-11.86" y="-59.69" fill="none" rx="0" ry="0" transform="translate(278.86 177.55)"></rect><path fill="#fff" d="M323.84 117.53q-2.13-.33-4.92-.33t-5.82.09l-6.07.16q-3.04.08-5.5.08.17 29.85-.49 59.21-.65 29.35.49 59.86 2.46.32 5.5.32 3.03 0 5.98-.16 2.96-.16 5.66-.25 2.71-.08 4.51.09.66-3.61.82-7.96.17-4.34.17-8.61 0-4.26-.17-8.2-.16-3.93-.16-6.89 2.79 3.61 5 7.55 2.21 3.93 4.18 7.95 1.97 4.02 4.02 8.12t4.51 8.04q2.46.49 5.99.65 3.52.17 7.29 0 3.78-.16 7.3-.41 3.53-.24 5.82-.24-6.23-12.63-13.69-24.36-7.46-11.72-14.84-23.7 6.89-9.18 13.94-18.28 7.05-9.1 13.12-18.45-2.3-.17-5.91.08-3.6.25-7.29.33-3.69.08-7.14 0-3.44-.08-5.57-.9-2.46 2.78-4.35 5.9-1.89 3.12-3.69 6.15-1.8 3.03-3.85 5.99-2.05 2.95-4.84 5.41-.49-3.77-.25-9.84.25-6.07.25-11.48z"></path><rect width="67.35" height="120.18" x="-33.67" y="-60.09" fill="none" rx="0" ry="0" transform="translate(334.77 177.79)"></rect><path fill="#fff" d="M392.549 154.1q-5.24.17-9.02 0-3.77-.16-5.9-.32-.82 0-2.38-.17-1.56-.16-2.21 0v.17q-.99 9.67-.99 19.92 0 10.25.33 20.75.33 10.49.41 21.15.08 10.66-.74 21 1.15-.33 4.6-.17 3.44.17 7.29.25 3.86.08 7.14 0t4.1-1.07q-1.15-19.84-.58-40.51.58-20.66.74-40.5v-.5zm-20.17-35.75q-.16 7.55.25 12.71.41 5.17.41 9.92 3.11-.16 6.72.09 3.61.24 6.81.32 3.2.09 5.57-.24 2.38-.33 3.04-1.31 0-2.46-.08-5.66-.09-3.2-.17-6.23-.08-3.04-.16-5.58t-.08-3.53z"></path><rect width="23.29" height="118.39" x="-11.64" y="-59.2" fill="none" rx="0" ry="0" transform="translate(384.2 178.04)"></rect><path fill="#fff" d="M435.849 124.42q-2.79.33-5.58.16-2.78-.16-5.57-.41-2.79-.24-5.33-.41-2.54-.16-4.68.17-.32 3.11-.41 7.05-.08 3.94-.08 8.2t.17 8.45q.16 4.18.16 7.79h-5.49q-2.87 0-6.15-.17l-.5 20.01h6.32q2.87 0 5.49-.16-.16 11.97.17 23.2.32 11.24 2.46 23.86 2.13 5.09 6.97 8.04 4.83 2.95 11.07 4.43 6.23 1.47 13.28 1.88 7.05.41 13.61.09.82-2.46 1.07-5.42.24-2.95.08-5.9-.16-2.95-.49-5.74-.33-2.79-.66-5.08-2.79.16-6.48 0-3.69-.17-7.29-.91-3.61-.73-6.73-2.05-3.11-1.31-4.75-3.6-.17-7.38-.17-15.83v-17.3h25.42q-.33-2.13-.08-5.17.25-3.03.41-5.98.16-2.96 0-5.5t-1.31-3.85l-14.02.82q-5.66.33-10.75.49 0-2.46-.08-4.76-.08-2.29-.08-4.42z"></path><rect width="60.63" height="113.17" x="-30.32" y="-56.59" fill="none" rx="0" ry="0" transform="translate(433.2 180.74)"></rect></svg></svg>